<svg xmlns="http://www.w3.org/2000/svg" xmlns:xlink="http://www.w3.org/1999/xlink" width="512" zoomAndPan="magnify" viewBox="0 0 384 383.999986" height="512" preserveAspectRatio="xMidYMid meet" version="1.0"><path fill="#4f5b93" d="M 383.691406 180.871094 L 383.691406 176.957031 L 382.464844 171.96875 C 382.386719 171.582031 382.3125 171.199219 382.234375 170.816406 C 382.082031 170.277344 381.925781 169.742188 381.851562 169.28125 L 369.339844 119.082031 L 357.441406 104.808594 C 353.066406 99.28125 348.769531 93.832031 344.011719 88.6875 L 304.484375 72.648438 L 214.835938 36.265625 C 212.839844 44.863281 209.078125 52.921875 206.390625 61.363281 C 201.785156 75.027344 196.488281 88.457031 192.269531 102.199219 L 195.953125 158.152344 L 217.367188 168.207031 C 230.261719 174.269531 243.15625 180.410156 256.128906 186.398438 L 256.128906 186.78125 C 231.71875 179.71875 207.542969 171.890625 183.058594 165.210938 C 181.753906 141.726562 180.832031 118.238281 179.21875 94.828125 C 148.671875 108.492188 117.894531 121.921875 87.652344 136.277344 C 75.371094 160.992188 62.171875 185.324219 49.890625 210.039062 C 48.277344 212.800781 46.820312 215.5625 45.363281 218.402344 C 42.828125 237.363281 39.605469 256.320312 37.070312 275.277344 C 34.078125 299.378906 30.394531 323.324219 28.246094 347.503906 C 45.746094 347.65625 63.246094 347.273438 80.746094 347.734375 L 105.304688 284.871094 C 105.535156 284.179688 105.765625 283.492188 105.996094 282.800781 C 106.304688 282.1875 106.609375 281.570312 106.839844 280.957031 C 108.605469 277.195312 109.988281 273.28125 111.371094 269.367188 C 128.253906 267.066406 145.296875 265.683594 162.335938 264.6875 L 240.699219 281.570312 L 272.9375 347.65625 C 289.59375 347.65625 306.324219 347.734375 323.058594 347.65625 L 290.742188 260.386719 L 290.742188 260.3125 C 286.675781 249.71875 282.53125 239.203125 278.234375 228.765625 C 278.003906 227.613281 277.542969 225.3125 277.390625 224.160156 C 302.871094 221.398438 328.351562 218.402344 353.914062 216.253906 L 353.527344 219.09375 C 349.308594 233.832031 345.699219 248.796875 342.167969 263.6875 C 336.566406 262.460938 330.734375 261.617188 325.359375 259.542969 C 322.519531 253.785156 321.675781 247.261719 319.296875 241.277344 C 312.464844 244.730469 306.019531 248.722656 299.570312 252.710938 C 305.632812 263.304688 311.007812 274.203125 317.453125 284.488281 C 321.597656 288.402344 327.046875 290.859375 331.882812 293.851562 C 334.339844 295.769531 337.410156 294.621094 340.171875 294.234375 C 346.699219 293.546875 353.144531 292.316406 359.515625 290.9375 C 367.269531 274.894531 375.710938 259.238281 383.386719 243.195312 L 383.386719 241.582031 C 384 223.007812 383.847656 204.355469 384 185.707031 C 383.769531 184.019531 383.769531 182.40625 383.691406 180.871094 Z M 323.519531 153.394531 C 329.351562 149.554688 335.414062 145.949219 341.476562 142.417969 C 342.246094 144.414062 342.9375 146.40625 343.628906 148.402344 C 344.164062 151.167969 344.394531 154.007812 344.777344 156.769531 C 337.640625 155.773438 330.578125 154.621094 323.519531 153.394531 Z M 323.519531 153.394531 " fill-opacity="1" fill-rule="nonzero"/><path fill="#4f5b93" d="M 42.445312 203.972656 C 47.972656 192.152344 54.417969 180.71875 59.023438 168.511719 C 39.066406 194.457031 19.113281 220.550781 0 247.1875 C 11.359375 238.667969 21.566406 228.84375 32.542969 219.863281 C 37.839844 216.023438 39.527344 209.421875 42.445312 203.972656 Z M 42.445312 203.972656 " fill-opacity="1" fill-rule="nonzero"/><path fill="#4f5b93" d="M 159.648438 273.511719 L 115.976562 275.738281 C 113.367188 299.6875 109.527344 323.480469 107.6875 347.503906 C 126.796875 347.503906 145.910156 347.503906 165.097656 347.503906 C 165.097656 336.449219 163.5625 325.476562 162.640625 314.421875 C 162.335938 300.835938 160.644531 287.175781 159.648438 273.511719 Z M 159.648438 273.511719 " fill-opacity="1" fill-rule="nonzero"/><path fill="#4f5b93" d="M 190.65625 278.425781 L 189.351562 347.734375 L 241.085938 347.582031 L 239.011719 289.707031 Z M 190.65625 278.425781 " fill-opacity="1" fill-rule="nonzero"/></svg>