<svg xmlns="http://www.w3.org/2000/svg" xmlns:xlink="http://www.w3.org/1999/xlink" width="500" zoomAndPan="magnify" viewBox="0 0 375 149.999998" height="200" preserveAspectRatio="xMidYMid meet" version="1.0"><defs><g/><clipPath id="b848aa3fd8"><path d="M 12 5.039062 L 172.5 5.039062 L 172.5 145.289062 L 12 145.289062 Z M 12 5.039062 " clip-rule="nonzero"/></clipPath><clipPath id="c7f6b67848"><path d="M 48 111 L 75 111 L 75 145.289062 L 48 145.289062 Z M 48 111 " clip-rule="nonzero"/></clipPath><clipPath id="0343e975c2"><path d="M 85 114 L 109 114 L 109 145.289062 L 85 145.289062 Z M 85 114 " clip-rule="nonzero"/></clipPath></defs><g fill="#4f5b93" fill-opacity="1"><g transform="translate(196.477902, 81.070258)"><g><path d="M 29.5625 -44.21875 C 32.3125 -44.21875 34.753906 -43.585938 36.890625 -42.328125 C 39.035156 -41.066406 40.707031 -39.332031 41.90625 -37.125 C 43.113281 -34.914062 43.71875 -32.441406 43.71875 -29.703125 L 43.71875 -28.859375 C 43.71875 -26.117188 43.113281 -23.632812 41.90625 -21.40625 C 40.707031 -19.175781 39.035156 -17.425781 36.890625 -16.15625 C 34.753906 -14.894531 32.3125 -14.265625 29.5625 -14.265625 L 18.96875 -14.265625 L 18.96875 0 L 4.75 0 L 4.75 -44.21875 Z M 18.96875 -24.625 L 24.8125 -24.625 C 26.3125 -24.625 27.4375 -25.007812 28.1875 -25.78125 C 28.9375 -26.550781 29.3125 -27.597656 29.3125 -28.921875 L 29.3125 -29.4375 C 29.3125 -30.8125 28.9375 -31.875 28.1875 -32.625 C 27.4375 -33.375 26.3125 -33.75 24.8125 -33.75 L 18.96875 -33.75 Z M 18.96875 -24.625 "/></g></g></g><g fill="#4f5b93" fill-opacity="1"><g transform="translate(250.542636, 81.070258)"><g><path d="M 34.578125 0 L 34.578125 -16.78125 L 18.96875 -16.78125 L 18.96875 0 L 4.75 0 L 4.75 -44.21875 L 18.96875 -44.21875 L 18.96875 -28.09375 L 34.578125 -28.09375 L 34.578125 -44.21875 L 48.796875 -44.21875 L 48.796875 0 Z M 34.578125 0 "/></g></g></g><g fill="#4f5b93" fill-opacity="1"><g transform="translate(311.743007, 81.070258)"><g><path d="M 29.5625 -44.21875 C 32.3125 -44.21875 34.753906 -43.585938 36.890625 -42.328125 C 39.035156 -41.066406 40.707031 -39.332031 41.90625 -37.125 C 43.113281 -34.914062 43.71875 -32.441406 43.71875 -29.703125 L 43.71875 -28.859375 C 43.71875 -26.117188 43.113281 -23.632812 41.90625 -21.40625 C 40.707031 -19.175781 39.035156 -17.425781 36.890625 -16.15625 C 34.753906 -14.894531 32.3125 -14.265625 29.5625 -14.265625 L 18.96875 -14.265625 L 18.96875 0 L 4.75 0 L 4.75 -44.21875 Z M 18.96875 -24.625 L 24.8125 -24.625 C 26.3125 -24.625 27.4375 -25.007812 28.1875 -25.78125 C 28.9375 -26.550781 29.3125 -27.597656 29.3125 -28.921875 L 29.3125 -29.4375 C 29.3125 -30.8125 28.9375 -31.875 28.1875 -32.625 C 27.4375 -33.375 26.3125 -33.75 24.8125 -33.75 L 18.96875 -33.75 Z M 18.96875 -24.625 "/></g></g></g><g fill="#4f5b93" fill-opacity="1"><g transform="translate(199.177902, 121.096461)"><g><path d="M 1.9375 -18.0625 L 17.5625 -18.0625 L 17.5625 -13.734375 L 7.75 -13.734375 L 7.75 -11.234375 L 16.140625 -11.234375 L 16.140625 -7.09375 L 7.75 -7.09375 L 7.75 -4.328125 L 17.75 -4.328125 L 17.75 0 L 1.9375 0 Z M 1.9375 -18.0625 "/></g></g></g><g fill="#4f5b93" fill-opacity="1"><g transform="translate(221.254932, 121.096461)"><g><path d="M 14.859375 0 L 7.265625 -8.765625 L 7.265625 0 L 1.9375 0 L 1.9375 -18.0625 L 7.015625 -18.0625 L 14.59375 -9.15625 L 14.59375 -18.0625 L 19.921875 -18.0625 L 19.921875 0 Z M 14.859375 0 "/></g></g></g><g fill="#4f5b93" fill-opacity="1"><g transform="translate(246.245661, 121.096461)"><g><path d="M 15.5625 -6.28125 C 15.5625 -4.019531 14.914062 -2.351562 13.625 -1.28125 C 12.34375 -0.21875 10.492188 0.3125 8.078125 0.3125 C 5.671875 0.3125 3.820312 -0.21875 2.53125 -1.28125 C 1.25 -2.351562 0.609375 -4.019531 0.609375 -6.28125 L 0.609375 -6.515625 L 6.03125 -6.515625 L 6.03125 -6.296875 C 6.03125 -5.472656 6.179688 -4.882812 6.484375 -4.53125 C 6.796875 -4.1875 7.269531 -4.015625 7.90625 -4.015625 C 8.53125 -4.015625 8.992188 -4.1875 9.296875 -4.53125 C 9.609375 -4.882812 9.765625 -5.472656 9.765625 -6.296875 L 9.765625 -18.0625 L 15.5625 -18.0625 Z M 15.5625 -6.28125 "/></g></g></g><g fill="#4f5b93" fill-opacity="1"><g transform="translate(266.878961, 121.096461)"><g><path d="M 10.921875 -18.375 C 14.035156 -18.375 16.441406 -17.578125 18.140625 -15.984375 C 19.835938 -14.390625 20.6875 -12.070312 20.6875 -9.03125 C 20.6875 -5.988281 19.835938 -3.671875 18.140625 -2.078125 C 16.441406 -0.484375 14.035156 0.3125 10.921875 0.3125 C 7.804688 0.3125 5.40625 -0.476562 3.71875 -2.0625 C 2.03125 -3.644531 1.1875 -5.96875 1.1875 -9.03125 C 1.1875 -12.09375 2.03125 -14.414062 3.71875 -16 C 5.40625 -17.582031 7.804688 -18.375 10.921875 -18.375 Z M 10.921875 -14.046875 C 9.679688 -14.046875 8.734375 -13.664062 8.078125 -12.90625 C 7.429688 -12.15625 7.109375 -11.144531 7.109375 -9.875 L 7.109375 -8.1875 C 7.109375 -6.914062 7.429688 -5.898438 8.078125 -5.140625 C 8.734375 -4.390625 9.679688 -4.015625 10.921875 -4.015625 C 12.160156 -4.015625 13.109375 -4.390625 13.765625 -5.140625 C 14.421875 -5.898438 14.75 -6.914062 14.75 -8.1875 L 14.75 -9.875 C 14.75 -11.144531 14.421875 -12.15625 13.765625 -12.90625 C 13.109375 -13.664062 12.160156 -14.046875 10.921875 -14.046875 Z M 10.921875 -14.046875 "/></g></g></g><g fill="#4f5b93" fill-opacity="1"><g transform="translate(291.869689, 121.096461)"><g><path d="M 13.15625 0 L 7.34375 0 L 7.34375 -7.015625 L 0.1875 -18.0625 L 6.84375 -18.0625 L 10.3125 -12.046875 L 10.421875 -12.046875 L 13.890625 -18.0625 L 20.21875 -18.0625 L 13.15625 -7.015625 Z M 13.15625 0 "/></g></g></g><g fill="#4f5b93" fill-opacity="1"><g transform="translate(315.416688, 121.096461)"><g><path d="M 1.9375 -18.0625 L 17.5625 -18.0625 L 17.5625 -13.734375 L 7.75 -13.734375 L 7.75 -11.234375 L 16.140625 -11.234375 L 16.140625 -7.09375 L 7.75 -7.09375 L 7.75 -4.328125 L 17.75 -4.328125 L 17.75 0 L 1.9375 0 Z M 1.9375 -18.0625 "/></g></g></g><g fill="#4f5b93" fill-opacity="1"><g transform="translate(337.493718, 121.096461)"><g><path d="M 8.53125 -19.421875 L 4.875 -23.234375 L 8.25 -23.234375 L 10.1875 -21.203125 L 12.125 -23.234375 L 15.546875 -23.234375 L 11.890625 -19.421875 Z M 19.078125 -12.515625 C 19.078125 -11.421875 18.78125 -10.425781 18.1875 -9.53125 C 17.59375 -8.632812 16.726562 -7.976562 15.59375 -7.5625 L 19.609375 0 L 13.09375 0 L 9.890625 -6.59375 L 7.75 -6.59375 L 7.75 0 L 1.9375 0 L 1.9375 -18.0625 L 13 -18.0625 C 14.289062 -18.0625 15.394531 -17.8125 16.3125 -17.3125 C 17.226562 -16.8125 17.914062 -16.132812 18.375 -15.28125 C 18.84375 -14.4375 19.078125 -13.515625 19.078125 -12.515625 Z M 13.171875 -12.28125 C 13.171875 -12.757812 13.015625 -13.15625 12.703125 -13.46875 C 12.390625 -13.78125 12.003906 -13.9375 11.546875 -13.9375 L 7.75 -13.9375 L 7.75 -10.609375 L 11.546875 -10.609375 C 12.003906 -10.609375 12.390625 -10.769531 12.703125 -11.09375 C 13.015625 -11.414062 13.171875 -11.8125 13.171875 -12.28125 Z M 13.171875 -12.28125 "/></g></g></g><g fill="#4f5b93" fill-opacity="1"><g transform="translate(361.040716, 121.096461)"><g><path d="M 2.203125 0 L 2.203125 -18.0625 L 8 -18.0625 L 8 0 Z M 2.203125 0 "/></g></g></g><g clip-path="url(#b848aa3fd8)"><path fill="#4f5b93" d="M 172.363281 70.160156 L 172.363281 68.398438 L 171.808594 66.15625 C 171.777344 65.984375 171.742188 65.8125 171.707031 65.640625 C 171.636719 65.398438 171.570312 65.15625 171.535156 64.949219 L 165.914062 42.386719 L 160.570312 35.96875 C 158.605469 33.484375 156.675781 31.035156 154.535156 28.722656 L 136.78125 21.511719 L 96.507812 5.160156 C 95.609375 9.023438 93.921875 12.644531 92.714844 16.441406 C 90.644531 22.582031 88.265625 28.621094 86.371094 34.796875 L 88.027344 59.945312 L 97.644531 64.46875 C 103.4375 67.191406 109.230469 69.953125 115.058594 72.644531 L 115.058594 72.816406 C 104.09375 69.640625 93.230469 66.121094 82.234375 63.121094 C 81.648438 52.5625 81.234375 42.007812 80.507812 31.484375 C 66.785156 37.625 52.960938 43.664062 39.375 50.113281 C 33.859375 61.222656 27.929688 72.160156 22.410156 83.269531 C 21.6875 84.511719 21.03125 85.753906 20.378906 87.03125 C 19.238281 95.550781 17.792969 104.074219 16.652344 112.597656 C 15.308594 123.429688 13.652344 134.195312 12.6875 145.0625 C 20.550781 145.132812 28.410156 144.957031 36.273438 145.164062 L 47.304688 116.910156 C 47.410156 116.597656 47.511719 116.289062 47.617188 115.976562 C 47.753906 115.703125 47.890625 115.425781 47.996094 115.148438 C 48.789062 113.457031 49.410156 111.699219 50.03125 109.941406 C 57.613281 108.90625 65.269531 108.285156 72.921875 107.835938 L 108.128906 115.425781 L 122.609375 145.132812 C 130.089844 145.132812 137.605469 145.164062 145.125 145.132812 L 130.609375 105.902344 L 130.609375 105.867188 C 128.78125 101.105469 126.917969 96.378906 124.988281 91.6875 C 124.882812 91.171875 124.675781 90.136719 124.609375 89.617188 C 136.054688 88.375 147.503906 87.03125 158.984375 86.066406 L 158.8125 87.339844 C 156.914062 93.964844 155.292969 100.695312 153.707031 107.386719 C 151.191406 106.835938 148.570312 106.457031 146.15625 105.523438 C 144.882812 102.9375 144.503906 100.003906 143.433594 97.3125 C 140.367188 98.863281 137.46875 100.660156 134.574219 102.453125 C 137.296875 107.214844 139.710938 112.113281 142.605469 116.738281 C 144.46875 118.496094 146.917969 119.601562 149.089844 120.945312 C 150.191406 121.808594 151.570312 121.289062 152.8125 121.117188 C 155.742188 120.808594 158.640625 120.253906 161.5 119.632812 C 164.984375 112.425781 168.777344 105.386719 172.222656 98.175781 L 172.222656 97.449219 C 172.5 89.101562 172.429688 80.71875 172.5 72.332031 C 172.398438 71.574219 172.398438 70.847656 172.363281 70.160156 Z M 145.332031 57.808594 C 147.949219 56.082031 150.675781 54.460938 153.398438 52.875 C 153.742188 53.769531 154.054688 54.667969 154.363281 55.566406 C 154.605469 56.808594 154.707031 58.085938 154.882812 59.324219 C 151.675781 58.878906 148.503906 58.359375 145.332031 57.808594 Z M 145.332031 57.808594 " fill-opacity="1" fill-rule="nonzero"/></g><path fill="#4f5b93" d="M 19.066406 80.542969 C 21.550781 75.230469 24.445312 70.089844 26.515625 64.605469 C 17.550781 76.265625 8.585938 87.996094 0 99.96875 C 5.101562 96.140625 9.6875 91.722656 14.621094 87.6875 C 17 85.960938 17.757812 82.992188 19.066406 80.542969 Z M 19.066406 80.542969 " fill-opacity="1" fill-rule="nonzero"/><g clip-path="url(#c7f6b67848)"><path fill="#4f5b93" d="M 71.71875 111.804688 L 52.097656 112.804688 C 50.925781 123.566406 49.203125 134.261719 48.375 145.0625 C 56.960938 145.0625 65.546875 145.0625 74.164062 145.0625 C 74.164062 140.09375 73.476562 135.160156 73.0625 130.191406 C 72.921875 124.085938 72.164062 117.945312 71.71875 111.804688 Z M 71.71875 111.804688 " fill-opacity="1" fill-rule="nonzero"/></g><g clip-path="url(#0343e975c2)"><path fill="#4f5b93" d="M 85.648438 114.011719 L 85.058594 145.164062 L 108.300781 145.097656 L 107.367188 119.082031 Z M 85.648438 114.011719 " fill-opacity="1" fill-rule="nonzero"/></g></svg>